PathFileType	4	(X/Y/Z)	C:/Users/beibeiliu/ov580/test_trc\sequence.1_training_dense_left.trc
DataRate	CameraRate	NumFrames	NumMarkers	Units	OrigDataRate	OrigDataStartFrame	OrigNumFrames
120	120	13	19	mm	120	44	345
Frame#	Time	ThumbCMC			ThumbMCP			ThumbIP			ThumbTip			IndexMCP			IndexPIP			IndexTip			MiddleMCP			MiddlePIP			MiddleTip			RingMCP			RingPIP			RingTip			PinkyMCP			PinkyPIP			PinkyTip			BackHand1			BackHand2			BackHand3	
		X0	Y0	Z0	X1	Y1	Z1	X2	Y2	Z2	X3	Y3	Z3	X4	Y4	Z4	X5	Y5	Z5	X6	Y6	Z6	X7	Y7	Z7	X8	Y8	Z8	X9	Y9	Z9	X10	Y10	Z10	X11	Y11	Z11	X12	Y12	Z12	X13	Y13	Z13	X14	Y14	Z14	X15	Y15	Z15	X16	Y16	Z16	X17	Y17	Z17	X18	Y18	Z18	
43	0.358333	-176.801	2.56527	2.40168	-176.452	28.442	-10.9776	-176.492	46.8836	-23.2308	-170.601	63.1742	-34.7692	-136.785	26.1804	-49.9444	-129.3	46.669	-64.157	-114.658	67.1941	-72.6854	-117.658	23.4615	-44.0712	-99.1056	45.9368	-49.8848	-87.4265	68.2892	-48.5524	-99.2952	15.7973	-30.1018	-87.5241	33.7725	-31.2434	-79.5558	56.1354	-26.9902	-88.2775	3.17119	-10.6604	-76.3873	15.7304	-9.83334	-68.7633	41.3051	-12.7551	-130.156	-18.6774	-12.1181	-147.033	-35.343	6.29244	-156.321	-15.2107	-15.2191	
44	0.366667	-174.114	3.87859	-0.65391	-178.578	29.4411	-12.9331	-178.252	47.6861	-24.0853	-172.794	63.5834	-34.3581	-137.97	28.1255	-51.4406	-127.425	46.2294	-65.2857	-121.989	67.2767	-74.1844	-115.755	22.4413	-44.8062	-98.552	44.1821	-50.5472	-86.2382	67.8247	-47.5292	-99.2872	15.5836	-31.3322	-88.6435	34.252	-32.3194	-82.4927	59.6803	-29.0476	-89.8442	3.41145	-9.06949	-78.4025	18.9908	-10.0368	-72.7109	40.1523	-11.6581	-128.684	-20.0824	-14.0054	-143.276	-37.3193	6.53496	-158.466	-17.7523	-11.1828	
45	0.375	-175.681	3.51704	-2.1328	-178.885	27.9252	-13.3751	-177.931	45.8273	-25.4793	-170.704	62.7114	-36.9596	-140.161	25.4321	-49.4782	-132.471	44.6475	-65.131	-122.12	65.1397	-72.9797	-113.783	22.3916	-45.7214	-102.665	46.0492	-53.5456	-91.4164	68.7587	-51.8426	-103.325	14.2169	-29.961	-87.5088	38.4291	-33.983	-84.3458	60.446	-30.1772	-90.4891	6.15358	-11.6343	-79.2402	26.3653	-10.174	-77.7001	46.658	-10.1788	-129.261	-18.2704	-13.0462	-146.274	-35.3392	6.34592	-158.163	-18.961	-12.8856	
46	0.383333	-179.435	4.20043	-3.42552	-181.862	25.6193	-11.0318	-176.418	42.3718	-24.4489	-170.381	60.6428	-37.4935	-141.948	28.8127	-54.8584	-134.347	46.3367	-68.4831	-125.379	65.972	-76.228	-119.599	21.6462	-47.096	-103.911	42.7566	-54.545	-91.2835	67.9227	-51.6523	-101.32	13.6729	-29.2908	-90.7462	37.2809	-34.9675	-86.1444	59.3815	-30.5359	-94.0414	6.97111	-13.5492	-81.6897	26.2638	-10.5834	-81.3414	47.1981	-7.42616	-127.055	-20.1721	-11.9785	-141.355	-34.1208	4.97739	-159.612	-19.0328	-13.4273	
47	0.391667	-180.033	0.790569	-1.66506	-179.738	24.788	-13.6598	-176.08	42.938	-28.6005	-172.559	57.5056	-38.625	-143.233	25.24	-55.9082	-132.162	43.3697	-68.9664	-125.016	61.3806	-76.328	-115.535	21.2054	-48.1105	-105.31	46.7901	-56.1591	-94.2466	69.7853	-54.0261	-99.1976	18.0007	-31.6475	-91.7638	39.1838	-35.1765	-85.569	63.6195	-30.4431	-90.917	9.05628	-10.2129	-83.9826	30.1051	-8.18821	-87.2697	52.8268	-3.88718	-129.024	-19.7861	-11.9726	-141.861	-36.1292	5.18835	-155.222	-18.97	-12.692	
48	0.4	-177.832	-0.689211	-2.00186	-179.614	24.5218	-17.2445	-176.812	39.3651	-28.2029	-175.774	57.1819	-40.543	-145.768	22.4427	-56.7938	-135.593	40.1295	-70.628	-128.959	62.716	-81.011	-120.143	18.325	-48.2522	-104.866	42.5976	-57.0646	-94.5744	67.3674	-55.0917	-101.717	14.9105	-31.1224	-94.2179	41.2055	-37.9478	-88.6223	60.9866	-31.2369	-91.6022	12.8009	-11.8047	-89.4646	30.0047	-10.7812	-96.1196	55.6544	-2.78218	-126.805	-21.1739	-14.0695	-141.734	-35.1073	9.15603	-158.222	-19.425	-14.384	
49	0.408333	-178.021	-2.72773	-0.513061	-179.532	22.2349	-16.3382	-179.589	39.0893	-30.1292	-178.099	55.8545	-43.1806	-144.352	18.0854	-54.6207	-136.348	38.723	-72.7004	-130.203	59.9101	-82.7333	-119.314	16.3133	-48.6995	-106.359	43.6279	-59.9937	-98.6764	68.8821	-59.1549	-106.654	16.2166	-34.8768	-96.3187	38.799	-39.0691	-95.9368	64.9742	-35.6618	-93.4475	13.2236	-12.4925	-92.8643	36.9399	-10.3627	-101.93	55.5079	-3.71322	-127.907	-21.5399	-14.0935	-140.846	-36.363	9.68105	-159.332	-21.8432	-10.7839	
50	0.416667	-181.184	-2.60154	-1.52817	-180.696	19.8037	-15.0783	-178.307	36.5618	-31.5154	-174.656	51.5076	-43.8717	-145.436	17.9673	-59.4291	-143.232	32.5302	-72.7195	-135.22	56.6617	-85.8832	-122.262	19.1528	-53.3307	-114.709	40.9395	-63.3078	-104.925	69.6379	-62.7773	-107.296	15.3502	-38.1626	-100.101	36.2849	-40.86	-96.2952	64.0979	-34.4374	-95.5816	11.3379	-14.0803	-97.8243	34.8215	-13.7106	-108.633	53.8713	-3.88584	-129.576	-21.9224	-14.4734	-142.243	-37.6193	9.16073	-155.819	-22.3503	-12.984	
51	0.425	-178.765	-4.19004	2.68929	-181.068	18.402	-16.3984	-178.479	34.8284	-33.0394	-176.133	50.3545	-45.9779	-150.835	13.0189	-56.9304	-145.831	32.7102	-76.5627	-134.992	51.4208	-87.4059	-126.551	15.6741	-53.1575	-114.167	37.7359	-64.2206	-107.287	65.9913	-65.0944	-109.477	12.6279	-36.3143	-102.562	35.5915	-42.9729	-101.17	63.1304	-35.1688	-101.988	12.4016	-18.2846	-99.0578	33.9594	-14.3873	-113.377	51.3365	-8.493	-130.683	-25.4154	-11.317	-140.677	-34.5341	7.17055	-159.022	-22.4635	-13.58	
52	0.433333	-179.262	-4.53736	1.80794	-184.891	17.5104	-16.1787	-182.979	33.1461	-35.8006	-179.709	48.6907	-50.095	-149.924	11.8898	-61.8274	-148.895	29.1469	-77.7638	-141.414	46.5727	-89.3248	-129.251	13.3959	-56.1585	-119.677	38.3808	-68.7954	-109.759	63.8787	-67.1678	-112.667	14.8967	-41.6015	-105.651	35.998	-44.3892	-106.792	62.1664	-36.9066	-100.103	10.4733	-18.536	-105.092	35.5945	-18.9212	-115.055	53.4347	-5.55365	-132.909	-23.0246	-13.2608	-138.461	-36.632	7.22628	-162.902	-24.4009	-10.8507	
53	0.441667	-183.063	-4.73301	1.44068	-184.82	14.8152	-16.8574	-185.483	31.2409	-35.2317	-176.779	42.9063	-50.6367	-156.488	8.71571	-60.85	-149.02	23.2852	-79.323	-142.664	39.8771	-91.0703	-129.962	10.2946	-57.3675	-122.385	32.2265	-70.5886	-113.605	60.8239	-69.3362	-115.173	12.2781	-43.3652	-109.276	34.7413	-46.55	-112.151	59.4718	-37.0807	-100.32	8.91647	-19.794	-101.838	32.7562	-18.2678	-120.644	48.7771	-10.4964	-129.552	-25.2924	-8.25039	-140.015	-38.2633	12.9305	-159.549	-26.5565	-9.18362	
54	0.45	-178.786	-6.80747	0.802831	-187.422	14.5741	-18.2963	-184.713	28.3601	-38.6863	-179.744	39.5511	-49.114	-159.15	5.23785	-62.0668	-150.035	16.9333	-80.1788	-149.1	37.6013	-95.7826	-129.979	5.17415	-56.5056	-124.132	25.3233	-71.9972	-118.639	54.5992	-73.5413	-115.346	10.2881	-44.3724	-108.374	32.985	-46.7089	-116.537	58.2984	-35.8867	-103.802	8.47713	-22.538	-108.255	31.1386	-23.9322	-124.466	47.2298	-12.0673	-129.748	-27.4705	-11.7043	-141.918	-37.2614	9.8941	-160.577	-26.9741	-11.4039	
55	0.458333	-181.466	-6.76295	1.43627	-186.732	13.424	-20.0183	-185.841	26.6527	-36.9897	-177.589	37.9025	-53.3514	-157.578	-1.10249	-57.2451	-156.455	14.8304	-83.2363	-147.59	33.5479	-98.4794	-131.409	1.85938	-57.2024	-126.979	24.2127	-74.992	-121.391	52.6221	-75.433	-118.674	6.64678	-44.8824	-113.823	35.2248	-49.1641	-116.47	53.7845	-36.0683	-104.686	9.50774	-25.247	-107.596	33.7825	-21.9038	-128.085	43.4483	-11.0424	-129.733	-26.6848	-12.6243	-139.461	-38.6189	13.8965	-161.028	-28.9065	-9.03279	
